<svg width="77" height="71" viewBox="0 0 77 71" fill="none" xmlns="http://www.w3.org/2000/svg">
<g clip-path="url(#clip0_349_119)">
<path d="M62.9072 8.7685C62.5673 8.7685 62.2274 8.6975 61.93 8.5555C53.7734 5.041 46.7212 3.55 38.2247 3.55C29.8556 3.55 21.8689 5.2185 14.6044 8.5555C13.5848 9.017 12.3103 8.6975 11.7155 7.8455C11.1632 6.9935 11.5456 5.893 12.5652 5.4315C20.467 1.775 29.1334 0 38.2247 0C47.316 0 55.2178 1.6685 63.8843 5.325C64.9463 5.8575 65.3287 6.9225 64.7764 7.7745C64.394 8.4135 63.7143 8.7685 62.9072 8.7685ZM2.11443 27.406C1.6896 27.406 1.26478 27.2995 0.88243 27.0865C-0.00970747 26.5185 -0.307087 25.418 0.372637 24.6015C4.57842 19.6315 9.93125 15.7265 16.3037 12.993C29.7281 7.242 46.7212 7.2065 60.1033 12.9575C66.4757 15.691 71.8285 19.525 76.0343 24.495C76.7141 25.276 76.4592 26.412 75.5245 26.98C74.5474 27.548 73.2305 27.3705 72.5507 26.625C68.7273 22.081 63.8843 18.5665 58.1491 16.117C45.9565 10.8985 30.3654 10.8985 18.2154 16.1525C12.4377 18.6375 7.5947 22.1875 3.77125 26.625C3.43139 27.1575 2.79414 27.406 2.11443 27.406ZM28.666 70.2545C28.1138 70.2545 27.604 70.077 27.1791 69.722C23.4833 66.6335 21.4866 64.6455 18.6402 60.35C15.7089 55.9835 14.1795 50.6585 14.1795 44.943C14.1795 34.3995 24.9701 25.8085 38.2247 25.8085C51.4793 25.8085 62.2699 34.3995 62.2699 44.943C62.2699 45.4138 62.0463 45.8653 61.6478 46.1981C61.2495 46.531 60.7092 46.718 60.1458 46.718C59.5826 46.718 59.0423 46.531 58.644 46.1981C58.2455 45.8653 58.0216 45.4138 58.0216 44.943C58.0216 36.352 49.1427 29.3585 38.2247 29.3585C27.3066 29.3585 18.4278 36.352 18.4278 44.943C18.4278 50.055 19.7873 54.7765 22.3787 58.575C25.0976 62.693 26.9667 64.4325 30.2379 67.2015C31.0451 67.9115 31.0451 69.012 30.2379 69.722C29.7281 70.077 29.2183 70.2545 28.666 70.2545ZM59.1262 63.687C54.0707 63.687 49.61 62.622 45.9565 60.5275C39.6266 56.942 35.8456 51.12 35.8456 44.943C35.8456 44.4722 36.0695 44.0207 36.468 43.6879C36.8663 43.355 37.4066 43.168 37.9698 43.168C38.5332 43.168 39.0735 43.355 39.4718 43.6879C39.8703 44.0207 40.0939 44.4722 40.0939 44.943C40.0939 49.9485 43.1527 54.67 48.3356 57.581C51.3518 59.285 54.8779 60.1015 59.1262 60.1015C60.1458 60.1015 61.8451 59.995 63.5444 59.7465C64.6914 59.569 65.8385 60.208 66.0084 61.202C66.2208 62.125 65.4561 63.0835 64.2666 63.261C61.8451 63.6515 59.7209 63.687 59.1262 63.687ZM50.5871 71C50.4172 71 50.2048 71 50.0349 71C43.2801 69.367 38.8619 67.2725 34.2313 63.474C28.2837 58.575 25.0126 51.972 25.0126 44.943C25.0126 39.192 30.8751 34.506 38.0972 34.506C45.3193 34.506 51.1819 39.192 51.1819 44.943C51.1819 48.7415 55.2178 51.83 60.0183 51.83C64.9038 51.83 68.8547 48.7415 68.8547 44.943C68.8547 31.5595 55.0478 20.6965 38.0547 20.6965C25.9897 20.6965 14.8593 26.3055 9.97373 35.003C8.3169 37.8785 7.46725 41.251 7.46725 44.943C7.46725 47.712 7.76463 52.0785 10.3136 57.7585C10.7384 58.6815 10.1861 59.711 9.08159 60.0305C7.97704 60.35 6.74504 59.8885 6.3627 59.001C4.23856 54.3505 3.26145 49.7 3.26145 44.943C3.26145 40.683 4.23856 36.8135 6.15028 33.441C11.8005 23.5365 24.3329 17.111 38.0547 17.111C57.3419 17.111 73.103 29.5715 73.103 44.9075C73.103 50.6585 67.2404 55.3445 60.0183 55.3445C52.7963 55.3445 46.9336 50.6585 46.9336 44.9075C46.9336 41.109 42.9827 38.0205 38.0972 38.0205C33.2117 38.0205 29.2608 41.109 29.2608 44.9075C29.2608 50.978 32.0647 56.658 37.2051 60.918C41.2409 64.255 45.1069 66.101 51.0969 67.45C52.244 67.734 52.8812 68.728 52.5838 69.651C52.3714 70.4675 51.4793 71 50.5871 71Z" fill="#6D6E70"/>
</g>
<defs>
<clipPath id="clip0_349_119">
<rect width="77" height="71" fill="white"/>
</clipPath>
</defs>
</svg>
