<svg id="Layer_1" data-name="Layer 1" xmlns="http://www.w3.org/2000/svg" viewBox="0 0 750.2 986.22"><defs><style>.cls-1{fill:#6167a3;}</style></defs><path class="cls-1" d="M395.43,536.66H162.25a24.17,24.17,0,0,1-25.35-25.37V161.19q0-58.47,41.55-100,41.55-42.27,100-42.27T379.23,61.16q41.55,41.57,41.55,100v350.1A25.11,25.11,0,0,1,413,529.61,23.86,23.86,0,0,1,395.43,536.66Z" transform="translate(-136.9 -18.89)"/><path class="cls-1" d="M861.75,536.66H628.57a24.17,24.17,0,0,1-25.35-25.37V161.19q0-58.47,41.59-100,41.55-42.27,100.7-42.27,58.49,0,100,42.27,41.55,41.57,41.55,100v350.1a25,25,0,0,1-7.75,18.32A23.79,23.79,0,0,1,861.75,536.66Z" transform="translate(-136.9 -18.89)"/><path class="cls-1" d="M162.25,604.28h699.5a26.55,26.55,0,0,1,25.35,25.36q0,78.2-29.55,146.53a375.08,375.08,0,0,1-80.34,119.05,382.57,382.57,0,0,1-119.75,81q-67.63,28.88-145.79,28.88-77.54,0-145.84-28.88A385.67,385.67,0,0,1,165.75,776.17q-28.87-68.34-28.85-146.53A23.89,23.89,0,0,1,144,612,25,25,0,0,1,162.25,604.28Z" transform="translate(-136.9 -18.89)"/></svg>