<svg width="149" height="25" viewBox="0 0 149 25" fill="none" xmlns="http://www.w3.org/2000/svg">
<path d="M6.47998 13.4644H0.823242C0.697917 13.4644 0.589681 13.4245 0.498535 13.3447C0.418783 13.2536 0.378906 13.1453 0.378906 13.02V4.52637C0.378906 3.6263 0.697917 2.85726 1.33594 2.21924C1.97396 1.56982 2.743 1.24512 3.64307 1.24512C4.54313 1.24512 5.31217 1.56982 5.9502 2.21924C6.59961 2.85726 6.92432 3.6263 6.92432 4.52637V13.02C6.92432 13.1453 6.87874 13.2536 6.7876 13.3447C6.70785 13.4245 6.60531 13.4644 6.47998 13.4644ZM17.7935 13.4644H12.1367C12.0114 13.4644 11.9032 13.4245 11.812 13.3447C11.7323 13.2536 11.6924 13.1453 11.6924 13.02V4.52637C11.6924 3.6263 12.0114 2.85726 12.6494 2.21924C13.2874 1.56982 14.0622 1.24512 14.9736 1.24512C15.8737 1.24512 16.6427 1.56982 17.2808 2.21924C17.9188 2.85726 18.2378 3.6263 18.2378 4.52637V13.02C18.2378 13.1453 18.1922 13.2536 18.1011 13.3447C18.0213 13.4245 17.9188 13.4644 17.7935 13.4644ZM0.823242 15.4468H17.7935C17.9188 15.4468 18.0213 15.4924 18.1011 15.5835C18.1922 15.6746 18.2378 15.7772 18.2378 15.8911C18.2378 17.133 18.0042 18.2951 17.5371 19.3774C17.0814 20.4484 16.4434 21.394 15.623 22.2144C14.8027 23.0347 13.8514 23.6784 12.769 24.1455C11.6981 24.6012 10.5417 24.8291 9.2998 24.8291C8.06934 24.8291 6.91292 24.6012 5.83057 24.1455C4.74821 23.6784 3.80257 23.0347 2.99365 22.2144C2.17334 21.394 1.52962 20.4484 1.0625 19.3774C0.606771 18.2951 0.378906 17.133 0.378906 15.8911C0.378906 15.7772 0.418783 15.6746 0.498535 15.5835C0.589681 15.4924 0.697917 15.4468 0.823242 15.4468Z" fill="white"/>
<path d="M32.4053 12.0288H29.4146C29.3006 12.0288 29.1981 11.9889 29.1069 11.9092C29.0158 11.818 28.9702 11.7098 28.9702 11.5845V7.60254C28.9702 7.47721 29.0158 7.37467 29.1069 7.29492C29.1981 7.20378 29.3006 7.1582 29.4146 7.1582H32.4053C33.0775 7.1582 33.6528 7.39746 34.1313 7.87598C34.6099 8.35449 34.8491 8.92985 34.8491 9.60205C34.8491 10.2743 34.6099 10.8496 34.1313 11.3281C33.6528 11.7952 33.0775 12.0288 32.4053 12.0288ZM27.0391 7.60254V17.5659C27.0391 17.6912 26.9935 17.7995 26.9023 17.8906C26.8226 17.9704 26.7201 18.0103 26.5947 18.0103C25.0908 18.0103 23.8091 17.4805 22.7495 16.4209C21.6899 15.3613 21.1602 14.0853 21.1602 12.5928C21.1602 11.0889 21.6899 9.80713 22.7495 8.74756C23.8091 7.68799 25.0908 7.1582 26.5947 7.1582C26.7201 7.1582 26.8226 7.20378 26.9023 7.29492C26.9935 7.37467 27.0391 7.47721 27.0391 7.60254ZM28.9702 24.3848V14.4214C28.9702 14.2961 29.0158 14.1935 29.1069 14.1138C29.1981 14.0226 29.3006 13.9771 29.4146 13.9771C30.9185 13.9771 32.2002 14.5068 33.2598 15.5664C34.3193 16.626 34.8491 17.902 34.8491 19.3945C34.8491 20.8984 34.3193 22.1802 33.2598 23.2397C32.2002 24.2993 30.9185 24.8291 29.4146 24.8291C29.3006 24.8291 29.1981 24.7892 29.1069 24.7095C29.0158 24.6183 28.9702 24.5101 28.9702 24.3848ZM23.604 19.9585H26.5947C26.7201 19.9585 26.8226 20.0041 26.9023 20.0952C26.9935 20.175 27.0391 20.2775 27.0391 20.4028V24.3848C27.0391 24.5101 26.9935 24.6183 26.9023 24.7095C26.8226 24.7892 26.7201 24.8291 26.5947 24.8291H23.604C22.9318 24.8291 22.3564 24.5898 21.8779 24.1113C21.3994 23.6328 21.1602 23.0575 21.1602 22.3853C21.1602 21.7244 21.3994 21.1548 21.8779 20.6763C22.3564 20.1978 22.9318 19.9585 23.604 19.9585Z" fill="white"/>
<path d="M49.0166 12.0288H46.0259C45.9119 12.0288 45.8094 11.9889 45.7183 11.9092C45.6271 11.818 45.5815 11.7098 45.5815 11.5845V7.60254C45.5815 7.47721 45.6271 7.37467 45.7183 7.29492C45.8094 7.20378 45.9119 7.1582 46.0259 7.1582H49.0166C49.6888 7.1582 50.2642 7.39746 50.7427 7.87598C51.2212 8.35449 51.4604 8.92985 51.4604 9.60205C51.4604 10.2743 51.2212 10.8496 50.7427 11.3281C50.2642 11.7952 49.6888 12.0288 49.0166 12.0288ZM43.6504 7.60254V17.5659C43.6504 17.6912 43.6048 17.7995 43.5137 17.8906C43.4339 17.9704 43.3314 18.0103 43.2061 18.0103C41.7021 18.0103 40.4204 17.4805 39.3608 16.4209C38.3013 15.3613 37.7715 14.0853 37.7715 12.5928C37.7715 11.0889 38.3013 9.80713 39.3608 8.74756C40.4204 7.68799 41.7021 7.1582 43.2061 7.1582C43.3314 7.1582 43.4339 7.20378 43.5137 7.29492C43.6048 7.37467 43.6504 7.47721 43.6504 7.60254ZM45.5815 24.3848V14.4214C45.5815 14.2961 45.6271 14.1935 45.7183 14.1138C45.8094 14.0226 45.9119 13.9771 46.0259 13.9771C47.5298 13.9771 48.8115 14.5068 49.8711 15.5664C50.9307 16.626 51.4604 17.902 51.4604 19.3945C51.4604 20.8984 50.9307 22.1802 49.8711 23.2397C48.8115 24.2993 47.5298 24.8291 46.0259 24.8291C45.9119 24.8291 45.8094 24.7892 45.7183 24.7095C45.6271 24.6183 45.5815 24.5101 45.5815 24.3848ZM40.2153 19.9585H43.2061C43.3314 19.9585 43.4339 20.0041 43.5137 20.0952C43.6048 20.175 43.6504 20.2775 43.6504 20.4028V24.3848C43.6504 24.5101 43.6048 24.6183 43.5137 24.7095C43.4339 24.7892 43.3314 24.8291 43.2061 24.8291H40.2153C39.5431 24.8291 38.9678 24.5898 38.4893 24.1113C38.0107 23.6328 37.7715 23.0575 37.7715 22.3853C37.7715 21.7244 38.0107 21.1548 38.4893 20.6763C38.9678 20.1978 39.5431 19.9585 40.2153 19.9585Z" fill="white"/>
<path d="M54.3828 22.4023V9.94385C54.3828 9.27165 54.6221 8.69629 55.1006 8.21777C55.5791 7.73926 56.1545 7.5 56.8267 7.5C57.4989 7.5 58.0742 7.73926 58.5527 8.21777C59.0312 8.69629 59.2705 9.27165 59.2705 9.94385V22.4023C59.2705 23.0632 59.0312 23.6328 58.5527 24.1113C58.0742 24.5898 57.4989 24.8291 56.8267 24.8291C56.1545 24.8291 55.5791 24.5898 55.1006 24.1113C54.6221 23.6328 54.3828 23.0632 54.3828 22.4023ZM54.3828 3.24463C54.3828 2.57243 54.6221 1.99707 55.1006 1.51855C55.5791 1.04004 56.1545 0.800781 56.8267 0.800781C57.4989 0.800781 58.0742 1.04004 58.5527 1.51855C59.0312 1.99707 59.2705 2.57243 59.2705 3.24463C59.2705 3.91683 59.0312 4.49219 58.5527 4.9707C58.0742 5.44922 57.4989 5.68848 56.8267 5.68848C56.1545 5.68848 55.5791 5.44922 55.1006 4.9707C54.6221 4.49219 54.3828 3.91683 54.3828 3.24463Z" fill="white"/>
<path d="M73.4209 12.0288H70.4302C70.3162 12.0288 70.2137 11.9889 70.1226 11.9092C70.0314 11.818 69.9858 11.7098 69.9858 11.5845V7.60254C69.9858 7.47721 70.0314 7.37467 70.1226 7.29492C70.2137 7.20378 70.3162 7.1582 70.4302 7.1582H73.4209C74.0931 7.1582 74.6685 7.39746 75.147 7.87598C75.6255 8.35449 75.8647 8.92985 75.8647 9.60205C75.8647 10.2743 75.6255 10.8496 75.147 11.3281C74.6685 11.7952 74.0931 12.0288 73.4209 12.0288ZM68.0547 7.60254V17.5659C68.0547 17.6912 68.0091 17.7995 67.918 17.8906C67.8382 17.9704 67.7357 18.0103 67.6104 18.0103C66.1064 18.0103 64.8247 17.4805 63.7651 16.4209C62.7056 15.3613 62.1758 14.0853 62.1758 12.5928C62.1758 11.0889 62.7056 9.80713 63.7651 8.74756C64.8247 7.68799 66.1064 7.1582 67.6104 7.1582C67.7357 7.1582 67.8382 7.20378 67.918 7.29492C68.0091 7.37467 68.0547 7.47721 68.0547 7.60254ZM69.9858 24.3848V14.4214C69.9858 14.2961 70.0314 14.1935 70.1226 14.1138C70.2137 14.0226 70.3162 13.9771 70.4302 13.9771C71.9341 13.9771 73.2158 14.5068 74.2754 15.5664C75.335 16.626 75.8647 17.902 75.8647 19.3945C75.8647 20.8984 75.335 22.1802 74.2754 23.2397C73.2158 24.2993 71.9341 24.8291 70.4302 24.8291C70.3162 24.8291 70.2137 24.7892 70.1226 24.7095C70.0314 24.6183 69.9858 24.5101 69.9858 24.3848ZM64.6196 19.9585H67.6104C67.7357 19.9585 67.8382 20.0041 67.918 20.0952C68.0091 20.175 68.0547 20.2775 68.0547 20.4028V24.3848C68.0547 24.5101 68.0091 24.6183 67.918 24.7095C67.8382 24.7892 67.7357 24.8291 67.6104 24.8291H64.6196C63.9474 24.8291 63.3721 24.5898 62.8936 24.1113C62.415 23.6328 62.1758 23.0575 62.1758 22.3853C62.1758 21.7244 62.415 21.1548 62.8936 20.6763C63.3721 20.1978 63.9474 19.9585 64.6196 19.9585Z" fill="white"/>
<path d="M86.3921 7.1582H89.3828C90.055 7.1582 90.6304 7.39746 91.1089 7.87598C91.5874 8.35449 91.8267 8.92985 91.8267 9.60205C91.8267 10.2743 91.5874 10.8496 91.1089 11.3281C90.6304 11.7952 90.055 12.0288 89.3828 12.0288H86.3921C86.2782 12.0288 86.1756 11.9889 86.0845 11.9092C85.9933 11.818 85.9478 11.7098 85.9478 11.5845V7.60254C85.9478 7.47721 85.9933 7.37467 86.0845 7.29492C86.1756 7.20378 86.2782 7.1582 86.3921 7.1582ZM78.7871 22.3853V3.74023C78.7871 3.06803 79.0264 2.49268 79.5049 2.01416C79.9834 1.53564 80.5588 1.29639 81.231 1.29639H83.2134C83.3387 1.29639 83.4412 1.34196 83.521 1.43311C83.6121 1.52425 83.6577 1.62679 83.6577 1.74072V24.3848C83.6577 24.5101 83.6121 24.6183 83.521 24.7095C83.4412 24.7892 83.3387 24.8291 83.2134 24.8291H81.231C80.5588 24.8291 79.9834 24.5898 79.5049 24.1113C79.0264 23.6328 78.7871 23.0575 78.7871 22.3853ZM86.3921 19.9585H89.3828C90.055 19.9585 90.6304 20.1978 91.1089 20.6763C91.5874 21.1548 91.8267 21.7244 91.8267 22.3853C91.8267 23.0575 91.5874 23.6328 91.1089 24.1113C90.6304 24.5898 90.055 24.8291 89.3828 24.8291H86.3921C86.2782 24.8291 86.1756 24.7892 86.0845 24.7095C85.9933 24.6183 85.9478 24.5101 85.9478 24.3848V20.4028C85.9478 20.2775 85.9933 20.175 86.0845 20.0952C86.1756 20.0041 86.2782 19.9585 86.3921 19.9585Z" fill="white"/>
<path d="M102.918 24.3848V7.60254C102.918 7.47721 102.958 7.37467 103.038 7.29492C103.129 7.20378 103.237 7.1582 103.362 7.1582C104.992 7.1582 106.473 7.55697 107.806 8.35449C109.139 9.15202 110.204 10.2173 111.001 11.5503C111.799 12.8833 112.198 14.3644 112.198 15.9937C112.198 17.6229 111.799 19.1097 111.001 20.4541C110.204 21.7871 109.139 22.8524 107.806 23.6499C106.473 24.436 104.992 24.8291 103.362 24.8291C103.237 24.8291 103.129 24.7892 103.038 24.7095C102.958 24.6183 102.918 24.5101 102.918 24.3848ZM100.628 14.4214V24.3848C100.628 24.5101 100.582 24.6183 100.491 24.7095C100.4 24.7892 100.298 24.8291 100.184 24.8291C98.6797 24.8291 97.3979 24.2993 96.3384 23.2397C95.2788 22.1802 94.749 20.8984 94.749 19.3945C94.749 17.902 95.2788 16.626 96.3384 15.5664C97.3979 14.5068 98.6797 13.9771 100.184 13.9771C100.298 13.9771 100.4 14.0226 100.491 14.1138C100.582 14.1935 100.628 14.2961 100.628 14.4214ZM97.1929 7.1582H100.184C100.298 7.1582 100.4 7.20378 100.491 7.29492C100.582 7.37467 100.628 7.47721 100.628 7.60254V11.5845C100.628 11.7098 100.582 11.818 100.491 11.9092C100.4 11.9889 100.298 12.0288 100.184 12.0288H97.1929C96.5207 12.0288 95.9453 11.7952 95.4668 11.3281C94.9883 10.8496 94.749 10.2743 94.749 9.60205C94.749 8.92985 94.9883 8.35449 95.4668 7.87598C95.9453 7.39746 96.5207 7.1582 97.1929 7.1582Z" fill="white"/>
<path d="M127.698 22.4023V18.1812C127.698 18.0558 127.738 17.9533 127.818 17.8735C127.909 17.7824 128.017 17.7368 128.143 17.7368H132.125C132.25 17.7368 132.352 17.7824 132.432 17.8735C132.523 17.9533 132.569 18.0558 132.569 18.1812V22.4023C132.569 23.0632 132.33 23.6328 131.851 24.1113C131.373 24.5898 130.797 24.8291 130.125 24.8291C129.453 24.8291 128.877 24.5898 128.399 24.1113C127.932 23.6328 127.698 23.0632 127.698 22.4023ZM132.125 15.7886H115.564C115.439 15.7886 115.331 15.7487 115.24 15.6689C115.16 15.5778 115.12 15.4696 115.12 15.3442C115.12 13.7378 115.513 12.2795 116.299 10.9692C117.085 9.64762 118.139 8.59375 119.461 7.80762C120.783 7.02148 122.247 6.62842 123.853 6.62842C125.459 6.62842 126.918 7.02148 128.228 7.80762C129.55 8.59375 130.604 9.64762 131.39 10.9692C132.176 12.2795 132.569 13.7378 132.569 15.3442C132.569 15.4696 132.523 15.5778 132.432 15.6689C132.352 15.7487 132.25 15.7886 132.125 15.7886ZM115.12 22.4023V18.1812C115.12 18.0558 115.16 17.9533 115.24 17.8735C115.331 17.7824 115.439 17.7368 115.564 17.7368H119.546C119.672 17.7368 119.774 17.7824 119.854 17.8735C119.945 17.9533 119.991 18.0558 119.991 18.1812V22.4023C119.991 23.0632 119.751 23.6328 119.273 24.1113C118.806 24.5898 118.236 24.8291 117.564 24.8291C116.892 24.8291 116.316 24.5898 115.838 24.1113C115.359 23.6328 115.12 23.0632 115.12 22.4023Z" fill="white"/>
<path d="M143.096 7.1582H146.087C146.759 7.1582 147.334 7.39746 147.813 7.87598C148.292 8.35449 148.531 8.92985 148.531 9.60205C148.531 10.2743 148.292 10.8496 147.813 11.3281C147.334 11.7952 146.759 12.0288 146.087 12.0288H143.096C142.982 12.0288 142.88 11.9889 142.789 11.9092C142.697 11.818 142.652 11.7098 142.652 11.5845V7.60254C142.652 7.47721 142.697 7.37467 142.789 7.29492C142.88 7.20378 142.982 7.1582 143.096 7.1582ZM135.491 22.3853V3.74023C135.491 3.06803 135.73 2.49268 136.209 2.01416C136.688 1.53564 137.263 1.29639 137.935 1.29639H139.917C140.043 1.29639 140.145 1.34196 140.225 1.43311C140.316 1.52425 140.362 1.62679 140.362 1.74072V24.3848C140.362 24.5101 140.316 24.6183 140.225 24.7095C140.145 24.7892 140.043 24.8291 139.917 24.8291H137.935C137.263 24.8291 136.688 24.5898 136.209 24.1113C135.73 23.6328 135.491 23.0575 135.491 22.3853ZM143.096 19.9585H146.087C146.759 19.9585 147.334 20.1978 147.813 20.6763C148.292 21.1548 148.531 21.7244 148.531 22.3853C148.531 23.0575 148.292 23.6328 147.813 24.1113C147.334 24.5898 146.759 24.8291 146.087 24.8291H143.096C142.982 24.8291 142.88 24.7892 142.789 24.7095C142.697 24.6183 142.652 24.5101 142.652 24.3848V20.4028C142.652 20.2775 142.697 20.175 142.789 20.0952C142.88 20.0041 142.982 19.9585 143.096 19.9585Z" fill="white"/>
</svg>
