<svg width="686" height="355" viewBox="0 0 686 355" fill="none" xmlns="http://www.w3.org/2000/svg">
<g clip-path="url(#clip0_342_6)">
<path d="M456.24 136.882C431.519 136.882 416.321 155.715 403.079 177.283C385.778 148.361 371.941 114.731 342.18 115.009C318.421 115.232 309.379 144.446 298.944 176.184C286.607 139.007 271.368 99.3867 228.12 99.3867C167.648 99.3867 164.18 151.029 144.088 177.651C137.047 168.241 128.07 161.878 114.06 161.878C60.2889 161.878 47.0456 177.501 0 177.501C47.2537 177.501 59.4742 193.124 114.06 193.124C128.13 193.124 137.111 186.896 144.088 177.651C164.075 204.359 168.478 255.615 228.12 255.615C272.025 255.615 286.478 214.098 298.944 176.184C309.846 209.042 318.482 239.992 342.18 239.992C371.105 239.992 385.336 206.182 403.079 177.283C416.09 199.033 431.063 218.12 456.24 218.12C495.803 218.12 519.43 193.958 540.369 178.226C549.907 185.075 559.387 189.999 570.301 189.999C606.148 189.999 645.884 177.501 685.99 177.501C635.408 177.501 602.074 165.002 570.301 165.002C559.957 165.002 550.476 170.632 540.369 178.226C518.578 162.578 496.474 136.882 456.24 136.882Z" fill="#9A93FC" fill-opacity="0.15"/>
<path d="M403.079 177.283C416.321 155.715 431.519 136.882 456.24 136.882C496.474 136.882 518.578 162.578 540.369 178.226M403.079 177.283C385.778 148.361 371.941 114.731 342.18 115.009C318.421 115.232 309.379 144.446 298.944 176.184M403.079 177.283C385.336 206.182 371.105 239.992 342.18 239.992C318.482 239.992 309.846 209.042 298.944 176.184M403.079 177.283C416.09 199.033 431.063 218.12 456.24 218.12C495.803 218.12 519.43 193.958 540.369 178.226M298.944 176.184C286.607 139.007 271.368 99.3867 228.12 99.3867C167.648 99.3867 164.18 151.029 144.088 177.651M298.944 176.184C286.478 214.098 272.024 255.615 228.12 255.615C168.478 255.615 164.075 204.359 144.088 177.651M144.088 177.651C137.047 168.241 128.07 161.878 114.06 161.878C60.2889 161.878 47.0456 177.501 0 177.501C47.2537 177.501 59.4742 193.124 114.06 193.124C128.13 193.124 137.111 186.896 144.088 177.651ZM540.369 178.226C549.907 185.075 559.387 189.999 570.301 189.999C606.148 189.999 645.884 177.501 685.99 177.501C635.408 177.501 602.074 165.002 570.301 165.002C559.957 165.002 550.476 170.632 540.369 178.226Z" stroke="white" stroke-opacity="0.8" stroke-width="1.41803"/>
<path d="M18 178.48C117.325 178.48 123.573 143.184 154.547 143.184C163.663 143.184 174.383 158.373 186.402 179.841C216.649 128.352 253.638 36.5017 291.095 37.296C315.519 37.8139 329.372 107.884 345.525 182.076C363.522 96.2508 383.446 2 427.641 2C487.942 2 503.952 118.566 530.439 178.737C539.739 157.522 550.23 143.184 564.188 143.184C617.832 143.184 655.427 178.48 702.361 178.48C655.219 178.48 618.645 213.776 564.188 213.776C550.134 213.776 539.652 199.669 530.439 178.737C503.994 239.054 487.17 354.96 427.641 354.96C384.958 354.96 363.774 265.888 345.525 182.076C330.425 254.087 316.681 320.167 291.095 319.664C251.517 318.885 215.222 231.317 186.402 179.841C174.641 199.858 163.901 213.776 154.547 213.776C121.135 213.776 117.159 178.48 18 178.48Z" fill="#9A93FC" fill-opacity="0.13"/>
<path d="M186.402 179.841C174.383 158.373 163.663 143.184 154.547 143.184C123.573 143.184 117.325 178.48 18 178.48C117.159 178.48 121.135 213.776 154.547 213.776C163.901 213.776 174.641 199.858 186.402 179.841ZM186.402 179.841C216.649 128.352 253.638 36.5017 291.095 37.296C315.519 37.8139 329.372 107.884 345.525 182.076M186.402 179.841C215.222 231.317 251.517 318.885 291.095 319.664C316.681 320.167 330.425 254.087 345.525 182.076M345.525 182.076C363.522 96.2508 383.446 2 427.641 2C487.942 2 503.952 118.566 530.439 178.737M345.525 182.076C363.774 265.888 384.958 354.96 427.641 354.96C487.17 354.96 503.994 239.054 530.439 178.737M530.439 178.737C539.739 157.522 550.23 143.184 564.188 143.184C617.832 143.184 655.427 178.48 702.361 178.48C655.219 178.48 618.645 213.776 564.188 213.776C550.134 213.776 539.652 199.669 530.439 178.737Z" stroke="white" stroke-opacity="0.8" stroke-width="1.41803"/>
<path d="M685.99 177.501C586.665 177.501 580.416 165.589 549.443 165.589C540.327 165.589 529.608 170.715 517.589 177.961C487.341 160.583 450.352 129.584 412.895 129.851C388.471 130.027 374.618 153.675 358.465 178.715C340.468 149.749 320.544 117.939 276.349 117.939C216.048 117.939 200.038 157.28 173.553 177.588C164.251 170.427 153.76 165.589 139.802 165.589C86.1583 165.589 48.5628 177.501 1.62891 177.501C48.7704 177.501 85.3455 189.414 139.802 189.414C153.856 189.414 164.338 184.653 173.553 177.588C199.996 197.945 216.821 237.063 276.349 237.063C319.032 237.063 340.216 207.002 358.465 178.715C373.565 203.019 387.309 225.321 412.895 225.15C452.473 224.888 488.768 195.334 517.589 177.961C529.349 184.716 540.089 189.414 549.443 189.414C582.854 189.414 586.831 177.501 685.99 177.501Z" fill="#9A93FC" fill-opacity="0.25"/>
<path d="M517.589 177.961C529.608 170.715 540.327 165.589 549.443 165.589C580.416 165.589 586.665 177.501 685.99 177.501C586.831 177.501 582.854 189.414 549.443 189.414C540.089 189.414 529.349 184.716 517.589 177.961ZM517.589 177.961C487.341 160.583 450.352 129.584 412.895 129.851C388.471 130.027 374.618 153.675 358.465 178.715M517.589 177.961C488.768 195.334 452.473 224.888 412.895 225.15C387.309 225.321 373.565 203.019 358.465 178.715M358.465 178.715C340.468 149.749 320.544 117.939 276.349 117.939C216.048 117.939 200.038 157.28 173.553 177.588M358.465 178.715C340.216 207.002 319.032 237.063 276.349 237.063C216.821 237.063 199.996 197.945 173.553 177.588M173.553 177.588C164.251 170.427 153.76 165.589 139.802 165.589C86.1583 165.589 48.5628 177.501 1.62891 177.501C48.7704 177.501 85.3455 189.414 139.802 189.414C153.856 189.414 164.338 184.653 173.553 177.588Z" stroke="white" stroke-opacity="0.8" stroke-width="1.41803"/>
<path d="M685.99 177.499C586.665 177.499 580.416 155.439 549.443 155.439C540.327 155.439 529.608 164.933 517.589 178.35C487.341 146.17 450.352 88.7627 412.895 89.2591C388.471 89.5829 374.618 133.377 358.465 179.747C340.468 126.106 320.544 67.1992 276.349 67.1992C216.048 67.1992 200.038 140.053 173.553 177.66C164.251 164.4 153.76 155.439 139.802 155.439C86.1583 155.439 48.5628 177.499 1.62891 177.499C48.7704 177.499 85.3455 199.559 139.802 199.559C153.856 199.559 164.338 190.742 173.553 177.66C199.996 215.358 216.821 287.799 276.349 287.799C319.032 287.799 340.216 232.13 358.465 179.747C373.565 224.754 387.309 266.053 412.895 265.739C452.473 265.253 488.768 210.523 517.589 178.35C529.349 190.861 540.089 199.559 549.443 199.559C582.854 199.559 586.831 177.499 685.99 177.499Z" fill="#333242" fill-opacity="0.3"/>
<path d="M517.589 178.35C529.608 164.933 540.327 155.439 549.443 155.439C580.416 155.439 586.665 177.499 685.99 177.499C586.831 177.499 582.854 199.559 549.443 199.559C540.089 199.559 529.349 190.861 517.589 178.35ZM517.589 178.35C487.341 146.17 450.352 88.7627 412.895 89.2591C388.471 89.5829 374.618 133.377 358.465 179.747M517.589 178.35C488.768 210.523 452.473 265.253 412.895 265.739C387.309 266.053 373.565 224.754 358.465 179.747M358.465 179.747C340.468 126.106 320.544 67.1992 276.349 67.1992C216.048 67.1992 200.038 140.053 173.553 177.66M358.465 179.747C340.216 232.13 319.032 287.799 276.349 287.799C216.821 287.799 199.996 215.358 173.553 177.66M173.553 177.66C164.251 164.4 153.76 155.439 139.802 155.439C86.1583 155.439 48.5628 177.499 1.62891 177.499C48.7704 177.499 85.3455 199.559 139.802 199.559C153.856 199.559 164.338 190.742 173.553 177.66Z" stroke="white" stroke-opacity="0.8" stroke-width="1.41803"/>
</g>
<defs>
<clipPath id="clip0_342_6">
<rect width="686" height="355" fill="white"/>
</clipPath>
</defs>
</svg>
